<?xml version="1.0" standalone="no"?>
<!DOCTYPE svg PUBLIC "-//W3C//DTD SVG 20010904//EN"
 "http://www.w3.org/TR/2001/REC-SVG-20010904/DTD/svg10.dtd">
<svg version="1.0" xmlns="http://www.w3.org/2000/svg"
 width="512.000000pt" height="512.000000pt" viewBox="0 0 512.000000 512.000000"
 preserveAspectRatio="xMidYMid meet">

<g transform="translate(0.000000,512.000000) scale(0.100000,-0.100000)"
fill="#000000" stroke="none">
<path d="M3760 4680 l0 -280 -280 0 -280 0 0 -320 0 -320 280 0 280 0 0 -280
0 -280 320 0 320 0 0 280 0 280 280 0 280 0 0 320 0 320 -280 0 -280 0 0 280
0 280 -320 0 -320 0 0 -280z"/>
<path d="M1481 3824 c-169 -45 -301 -180 -346 -351 -12 -44 -15 -120 -15 -325
l0 -268 40 0 40 0 0 54 c0 38 6 61 19 77 19 23 25 24 203 29 173 6 186 7 234
32 28 15 65 38 81 52 46 39 92 134 100 207 7 72 34 109 78 109 44 0 64 -18 97
-88 23 -46 56 -90 108 -143 115 -116 242 -169 407 -169 55 0 68 -4 88 -25 21
-20 25 -34 25 -80 l0 -55 40 0 40 0 0 216 c0 139 -4 231 -12 256 -6 22 -31 62
-55 88 -53 59 -108 80 -210 80 -65 0 -77 3 -98 25 -16 15 -25 35 -25 56 0 91
-81 202 -166 227 -63 18 -602 15 -673 -4z"/>
<path d="M1926 3105 c-27 -50 -123 -138 -184 -169 -80 -41 -155 -56 -274 -56
l-108 0 0 -223 c0 -260 8 -313 61 -424 78 -162 237 -279 418 -305 241 -35 477
89 581 306 52 110 60 163 60 422 l0 222 -74 11 c-148 22 -273 83 -387 189 -36
34 -68 62 -70 62 -3 0 -13 -16 -23 -35z"/>
<path d="M1115 2710 c-44 -18 -70 -59 -70 -111 0 -65 40 -109 109 -116 l46 -6
0 122 0 121 -32 -1 c-18 0 -42 -4 -53 -9z"/>
<path d="M2640 2600 l0 -123 46 6 c69 7 109 51 109 117 0 66 -40 110 -109 117
l-46 6 0 -123z"/>
<path d="M1116 2266 c-14 -106 -97 -237 -181 -282 -19 -10 -35 -22 -35 -26 0
-12 103 -76 178 -110 93 -42 240 -78 350 -85 l92 -6 0 66 c0 37 -4 67 -10 67
-20 0 -143 126 -189 196 -27 40 -62 109 -78 153 l-28 81 -46 0 -47 0 -6 -54z"/>
<path d="M2597 2239 c-16 -44 -51 -113 -78 -153 -46 -70 -169 -196 -189 -196
-6 0 -10 -30 -10 -67 l0 -66 93 6 c109 7 257 43 348 84 74 34 179 99 179 111
0 4 -16 16 -35 26 -84 45 -167 176 -181 282 l-6 54 -47 0 -46 0 -28 -81z"/>
<path d="M1680 1752 c0 -45 11 -68 118 -256 64 -113 119 -206 122 -206 3 0 58
93 123 206 106 188 117 211 117 256 0 44 -2 49 -17 43 -38 -14 -168 -35 -223
-35 -55 0 -185 21 -222 35 -16 6 -18 1 -18 -43z"/>
<path d="M1383 1557 l-103 -21 0 -128 0 -128 56 0 c87 0 133 -18 189 -75 69
-68 75 -94 75 -324 0 -190 0 -192 -25 -216 -22 -23 -32 -25 -120 -25 l-95 0 0
80 0 80 40 0 40 0 0 135 c0 131 -1 137 -25 160 -24 25 -26 25 -215 25 -189 0
-191 0 -215 -25 -24 -23 -25 -29 -25 -160 l0 -135 40 0 40 0 0 -80 0 -80 -95
0 c-88 0 -98 2 -120 25 -25 24 -25 26 -25 216 0 230 6 256 75 324 56 57 102
75 189 75 l56 0 0 111 c0 110 0 111 -22 107 -473 -90 -621 -124 -629 -143 -8
-19 -209 -1082 -209 -1105 0 -7 90 -10 270 -10 l270 0 0 120 0 120 80 0 80 0
0 -120 0 -120 280 0 280 0 0 160 0 160 80 0 80 0 0 -160 0 -160 240 0 240 0 0
568 c-1 510 -2 564 -16 542 -8 -14 -49 -86 -92 -160 -83 -145 -104 -164 -159
-144 -22 7 -47 43 -118 166 l-90 157 -3 -45 -3 -44 -80 0 -79 0 0 150 c0 137
-2 150 -17 149 -10 -1 -64 -11 -120 -22z"/>
<path d="M2320 911 l0 -671 320 0 320 0 0 120 0 120 80 0 80 0 0 -120 0 -120
230 0 c153 0 230 4 230 10 0 23 -201 1086 -209 1105 -8 19 -156 53 -628 143
l-23 4 0 -200 0 -200 30 -12 c68 -28 130 -129 130 -212 0 -96 -81 -204 -171
-228 -52 -14 -135 -8 -176 13 -74 39 -133 134 -133 215 0 83 62 184 130 212
l30 12 0 217 0 217 -92 18 c-51 10 -105 20 -120 23 l-28 6 0 -672z"/>
<path d="M2585 935 c-50 -49 -15 -135 55 -135 41 0 80 39 80 80 0 41 -39 80
-80 80 -19 0 -40 -9 -55 -25z"/>
</g>
</svg>
