<?xml version="1.0" standalone="no"?>
<!DOCTYPE svg PUBLIC "-//W3C//DTD SVG 20010904//EN"
 "http://www.w3.org/TR/2001/REC-SVG-20010904/DTD/svg10.dtd">
<svg version="1.0" xmlns="http://www.w3.org/2000/svg"
 width="512.000000pt" height="512.000000pt" viewBox="0 0 512.000000 512.000000"
 preserveAspectRatio="xMidYMid meet">

<g transform="translate(0.000000,512.000000) scale(0.100000,-0.100000)"
fill="#000000" stroke="none">
<path d="M1575 4599 c-165 -21 -362 -98 -513 -201 -97 -66 -241 -211 -309
-309 -68 -99 -136 -237 -173 -349 -48 -146 -63 -248 -64 -415 0 -180 21 -303
90 -515 l45 -140 208 0 208 0 179 156 c98 86 190 160 203 165 17 7 33 5 60 -8
35 -18 37 -23 175 -386 83 -218 143 -363 147 -355 4 7 100 265 213 573 138
374 213 566 227 578 12 9 36 17 54 17 71 0 66 17 206 -616 149 -673 139 -627
144 -623 2 2 49 180 104 394 56 215 107 403 113 418 16 40 60 61 102 47 27 -9
58 -48 200 -261 92 -138 169 -249 171 -247 2 1 42 102 90 223 91 230 113 265
164 265 42 0 64 -22 201 -199 l125 -161 256 0 257 0 31 85 c98 271 134 500
112 710 -35 328 -162 599 -386 820 -171 170 -378 279 -615 326 -36 7 -128 13
-205 13 -117 0 -157 -5 -245 -27 -215 -53 -390 -149 -542 -295 l-47 -45 -68
63 c-253 231 -587 340 -918 299z"/>
<path d="M2298 3008 c-3 -7 -92 -249 -198 -538 -106 -289 -200 -533 -209 -544
-39 -46 -109 -39 -135 13 -8 14 -80 202 -161 416 -81 215 -151 394 -155 398
-4 5 -61 -38 -126 -95 -66 -57 -134 -116 -152 -131 l-34 -27 -198 0 -199 0 23
-52 c37 -83 148 -277 232 -405 321 -488 777 -959 1327 -1372 183 -137 230
-165 261 -157 13 3 75 42 138 87 685 491 1235 1084 1583 1710 l86 154 -248 5
c-136 3 -256 9 -265 13 -9 5 -60 64 -113 133 -53 68 -100 126 -104 129 -5 3
-51 -99 -102 -227 -51 -127 -101 -240 -111 -250 -22 -22 -75 -24 -104 -4 -11
8 -89 118 -173 245 -85 127 -155 230 -157 229 -1 -2 -57 -212 -124 -468 -66
-256 -125 -480 -131 -497 -23 -73 -120 -88 -153 -24 -8 15 -76 305 -151 646
-75 341 -138 621 -140 623 -1 2 -5 -3 -7 -10z"/>
</g>
</svg>
