<?xml version="1.0" standalone="no"?>
<!DOCTYPE svg PUBLIC "-//W3C//DTD SVG 20010904//EN"
 "http://www.w3.org/TR/2001/REC-SVG-20010904/DTD/svg10.dtd">
<svg version="1.0" xmlns="http://www.w3.org/2000/svg"
 width="512.000000pt" height="512.000000pt" viewBox="0 0 512.000000 512.000000"
 preserveAspectRatio="xMidYMid meet">

<g transform="translate(0.000000,512.000000) scale(0.100000,-0.100000)"
fill="#000000" stroke="none">
<path d="M121 4840 c-46 -11 -82 -40 -104 -81 -16 -32 -17 -153 -15 -2209 l3
-2175 24 -34 c46 -65 -70 -61 1736 -61 1561 -1 1649 0 1678 17 16 10 39 31 51
46 21 28 21 39 24 473 l3 444 -479 0 c-517 0 -537 2 -644 56 -110 56 -203 184
-228 313 -13 70 -13 891 0 962 23 126 120 258 228 313 107 54 127 56 644 56
l478 0 0 235 0 235 -638 0 -638 0 -44 23 c-24 12 -53 35 -64 50 -21 28 -21 40
-24 683 l-2 654 -964 0 c-531 0 -970 2 -978 4 -7 2 -28 0 -47 -4z m1506 -949
c108 -50 108 -213 -1 -265 -30 -14 -94 -16 -543 -16 -464 0 -511 2 -543 18
-104 52 -106 201 -4 259 39 23 40 23 544 23 475 0 507 -2 547 -19z m7 -604
c102 -58 98 -211 -8 -261 -30 -14 -94 -16 -543 -16 -464 0 -511 2 -542 18 -55
27 -76 64 -76 132 0 67 20 102 75 131 32 18 67 19 545 19 509 0 510 0 549 -23z
m0 -600 c102 -58 98 -211 -8 -261 -30 -14 -94 -16 -543 -16 -476 0 -511 1
-543 19 -55 29 -75 64 -75 131 0 67 20 102 75 131 32 18 67 19 545 19 509 0
510 0 549 -23z m-8 -593 c106 -50 110 -203 8 -261 -39 -23 -40 -23 -549 -23
-478 0 -513 1 -545 19 -55 29 -75 64 -75 131 0 68 21 105 76 132 31 16 78 18
542 18 449 0 513 -2 543 -16z m0 -600 c109 -52 109 -215 1 -265 -39 -17 -72
-19 -547 -19 -473 0 -508 1 -540 19 -55 29 -75 64 -75 131 0 68 21 105 76 132
31 16 78 18 542 18 449 0 513 -2 543 -16z"/>
<path d="M2410 4285 l0 -555 555 0 c606 0 567 -4 544 57 -14 38 -995 1021
-1036 1039 -68 29 -63 72 -63 -541z"/>
<path d="M3976 3120 c-16 -5 -40 -19 -54 -32 -45 -42 -52 -74 -52 -257 l0
-171 -654 -2 c-643 -3 -655 -3 -682 -24 -15 -11 -37 -33 -48 -48 -20 -27 -21
-41 -24 -463 -3 -420 -2 -437 18 -477 13 -27 34 -50 59 -64 39 -22 39 -22 685
-22 l646 0 0 -169 c0 -96 5 -182 11 -198 16 -42 59 -82 101 -94 80 -21 78 -22
609 461 272 248 502 465 512 482 21 41 21 94 -1 135 -9 17 -213 210 -452 428
-556 507 -552 504 -592 515 -38 11 -43 11 -82 0z"/>
</g>
</svg>
